<svg width="34" height="42" viewBox="0 0 34 42" fill="none" xmlns="http://www.w3.org/2000/svg">
<g clip-path="url(#clip0_113_132)">
<path d="M8.45495 8.44526H10.6856V3.34213H3.34595V16.1594L8.45495 19.8671V8.44526Z" fill="white"/>
<path d="M0 0V29.6701L17 42L34 29.6701V0H0ZM32.8847 29.0986L17 40.6249L1.11533 29.0986V1.11114H32.8847V29.0986Z" fill="white"/>
<path d="M21.0837 8.44526V3.34213H12.9133V8.44526H14.444V10.6733H10.6827V24.2072L14.444 26.9227V29.644L8.45495 25.3097V22.5884L3.34595 18.8807V27.9613L17 37.8746L30.654 27.9613V18.8807L25.545 22.5884V25.3097L19.5559 29.644V26.9227L23.3172 24.2072V10.6733H19.5559V8.44526H21.0866H21.0837ZM21.6646 16.3857L19.0651 18.5413L19.8696 21.8544L16.9971 20.0499L14.1245 21.8544L14.9291 18.5413L12.3295 16.3857L15.7307 16.1623L16.9942 12.9914L18.2576 16.1623L21.6588 16.3857H21.6646Z" fill="white"/>
<path d="M25.545 19.8671L30.654 16.1594V3.34213H23.3143V8.44526H25.545V19.8671Z" fill="white"/>
</g>
<defs>
<clipPath id="clip0_113_132">
<rect width="34" height="42" fill="white"/>
</clipPath>
</defs>
</svg>
